<?xml version="1.0" encoding="UTF-8" standalone="no"?>
<!-- Created with Inkscape (http://www.inkscape.org/) -->

<svg
   width="1256"
   height="256"
   viewBox="0 0 332.31665 67.733335"
   version="1.1"
   id="svg5"
   sodipodi:docname="confectory-logo.svg"
   inkscape:version="1.1 (c68e22c387, 2021-05-23)"
   inkscape:export-filename="C:\Users\oswal\Desktop\confectory\confectory-logo-s.png"
   inkscape:export-xdpi="15.000001"
   inkscape:export-ydpi="15.000001"
   xmlns:inkscape="http://www.inkscape.org/namespaces/inkscape"
   xmlns:sodipodi="http://sodipodi.sourceforge.net/DTD/sodipodi-0.dtd"
   xmlns:xlink="http://www.w3.org/1999/xlink"
   xmlns="http://www.w3.org/2000/svg"
   xmlns:svg="http://www.w3.org/2000/svg">
  <sodipodi:namedview
     id="namedview7"
     pagecolor="#ffffff"
     bordercolor="#666666"
     borderopacity="1.0"
     inkscape:pageshadow="2"
     inkscape:pageopacity="0.0"
     inkscape:pagecheckerboard="0"
     inkscape:document-units="px"
     showgrid="false"
     showborder="true"
     inkscape:snap-global="false"
     inkscape:snap-smooth-nodes="true"
     inkscape:snap-bbox="false"
     inkscape:object-nodes="true"
     inkscape:zoom="0.5"
     inkscape:cx="573"
     inkscape:cy="103"
     inkscape:window-width="1920"
     inkscape:window-height="1009"
     inkscape:window-x="-8"
     inkscape:window-y="-8"
     inkscape:window-maximized="1"
     inkscape:current-layer="layer1"
     inkscape:snap-nodes="true"
     inkscape:object-paths="true"
     showguides="false"
     units="px"
     fit-margin-top="0"
     fit-margin-left="0"
     fit-margin-right="0"
     fit-margin-bottom="0" />
  <defs
     id="defs2">
    <linearGradient
       x1="39.109913"
       y1="36.654343"
       x2="225.40398"
       y2="211.24091"
       id="linearGradient1474"
       gradientTransform="matrix(2.5013316,0,0,2.6690319,-1171.3258,-90.002898)"
       gradientUnits="userSpaceOnUse">
      <stop
         offset="0%"
         id="stop1470"
         style="stop-color:#ff8533;stop-opacity:1" />
      <stop
         stop-color="#FFF"
         offset="100%"
         id="stop1472"
         style="stop-color:#ffffff;stop-opacity:1" />
    </linearGradient>
    <linearGradient
       inkscape:collect="always"
       id="linearGradient96738">
      <stop
         style="stop-color:#953b00;stop-opacity:1"
         offset="0"
         id="stop96734" />
      <stop
         style="stop-color:#6a2b00;stop-opacity:0;"
         offset="1"
         id="stop96736" />
    </linearGradient>
    <rect
       x="-3439.3674"
       y="-1516.0369"
       width="7444.4204"
       height="5588.9722"
       id="rect79550" />
    <inkscape:path-effect
       effect="offset"
       id="path-effect23666"
       is_visible="true"
       lpeversion="1"
       linejoin_type="miter"
       unit="mm"
       offset="8.8"
       miter_limit="4"
       attempt_force_join="false"
       update_on_knot_move="true" />
    <linearGradient
       x1="39.109913"
       y1="36.654343"
       x2="225.40398"
       y2="211.24091"
       id="linearGradient7510"
       gradientTransform="matrix(2.5013316,0,0,2.6690319,-1171.3258,-90.002898)"
       gradientUnits="userSpaceOnUse">
      <stop
         offset="0%"
         id="stop7506"
         style="stop-color:#ff9b58;stop-opacity:1" />
      <stop
         stop-color="#FFF"
         offset="100%"
         id="stop7508"
         style="stop-color:#ffe6d5;stop-opacity:1" />
    </linearGradient>
    <linearGradient
       x1="39.109913"
       y1="36.654343"
       x2="225.40398"
       y2="211.24091"
       id="linearGradient7182"
       gradientTransform="matrix(2.5013316,0,0,2.6690319,-1171.3258,-90.002898)"
       gradientUnits="userSpaceOnUse">
      <stop
         offset="0%"
         id="stop7178"
         style="stop-color:#ffb07b;stop-opacity:1" />
      <stop
         stop-color="#FFF"
         offset="100%"
         id="stop7180"
         style="stop-color:#ffe6d5;stop-opacity:1" />
    </linearGradient>
    <linearGradient
       x1="39.109913"
       y1="36.654343"
       x2="225.40398"
       y2="211.24091"
       id="linearGradient5984"
       gradientTransform="matrix(2.5013316,0,0,2.6690319,-1171.3258,-90.002898)"
       gradientUnits="userSpaceOnUse">
      <stop
         offset="0%"
         id="stop5980"
         style="stop-color:#ffccaa;stop-opacity:1" />
      <stop
         stop-color="#FFF"
         offset="100%"
         id="stop5982"
         style="stop-color:#ffe6d5;stop-opacity:1" />
    </linearGradient>
    <linearGradient
       x1="39.109913"
       y1="36.654343"
       x2="225.40398"
       y2="211.24091"
       id="a"
       gradientTransform="matrix(2.5013316,0,0,2.6690319,-1171.3258,-90.002898)"
       gradientUnits="userSpaceOnUse"
       xlink:href="#b">
      <stop
         offset="0%"
         id="stop2"
         style="stop-color:#c87137;stop-opacity:1" />
      <stop
         stop-color="#FFF"
         offset="100%"
         id="stop4"
         style="stop-color:#ffccaa;stop-opacity:1" />
    </linearGradient>
    <linearGradient
       x1="240.03935"
       y1="198.3614"
       x2="41.650391"
       y2="34.419209"
       id="b"
       gradientTransform="matrix(2.3488292,0,0,2.8423242,-1171.3258,-90.002898)"
       gradientUnits="userSpaceOnUse"
       spreadMethod="pad">
      <stop
         offset="0%"
         id="stop7" />
      <stop
         stop-color="#FFF"
         offset="100%"
         id="stop9" />
    </linearGradient>
    <linearGradient
       inkscape:collect="always"
       xlink:href="#linearGradient1474"
       id="linearGradient4796"
       x1="-595.36359"
       y1="461.14999"
       x2="-908.90265"
       y2="75.540619"
       gradientUnits="userSpaceOnUse" />
    <filter
       inkscape:collect="always"
       style="color-interpolation-filters:sRGB"
       id="filter32582"
       x="-0.067765649"
       y="-0.71028443"
       width="1.1355313"
       height="2.4205689">
      <feGaussianBlur
         inkscape:collect="always"
         stdDeviation="11.959755"
         id="feGaussianBlur32584" />
    </filter>
    <linearGradient
       inkscape:collect="always"
       xlink:href="#linearGradient96738"
       id="linearGradient96604"
       x1="-849.91223"
       y1="136.98544"
       x2="-847.03278"
       y2="57.096863"
       gradientUnits="userSpaceOnUse" />
    <linearGradient
       inkscape:collect="always"
       xlink:href="#linearGradient96738"
       id="linearGradient100804"
       x1="-553.23413"
       y1="140.06651"
       x2="-555.62579"
       y2="-250.8056"
       gradientUnits="userSpaceOnUse" />
    <filter
       inkscape:collect="always"
       style="color-interpolation-filters:sRGB"
       id="filter22608"
       x="-0.033672442"
       y="-0.045992965"
       width="1.0673449"
       height="1.0919859">
      <feGaussianBlur
         inkscape:collect="always"
         stdDeviation="27.636628"
         id="feGaussianBlur22610" />
    </filter>
    <linearGradient
       inkscape:collect="always"
       xlink:href="#linearGradient1474"
       id="linearGradient25857"
       x1="-1171.3258"
       y1="240.93297"
       x2="-551.81555"
       y2="240.93297"
       gradientUnits="userSpaceOnUse" />
  </defs>
  <g
     inkscape:label="layer-1"
     inkscape:groupmode="layer"
     id="layer1"
     transform="translate(1185.4331,102.90168)">
    <g
       id="g1031"
       transform="translate(-0.01140829)">
      <g
         id="g17832"
         style="fill:#cccccc"
         transform="matrix(0.0960601,0,0,0.0960601,-1073.285,-93.742927)"
         inkscape:label="confectory-text-bg">
        <path
           d="m -201.03698,408.55296 q -75.2687,0 -106.6256,-40.6126 -31.08616,-40.61261 -16.79041,-116.69354 14.34663,-76.35169 64.19854,-118.31803 49.85191,-41.96636 127.2866,-41.96636 53.337888,0 96.073285,23.28456 l -45.839077,78.24694 q -17.646188,-8.39327 -32.975478,-13.26679 -15.27843,-5.14426 -32.87722,-5.14426 -25.72131,0 -43.56507,20.03555 -17.84375,20.03555 -24.71182,56.58689 -13.83788,73.64418 40.583,73.64418 46.56912,0 94.435181,-27.07507 l -15.821987,84.20346 q -45.970814,27.07507 -103.369944,27.07507 z"
           style="font-weight:800;font-size:493.152px;line-height:1.25;font-family:'Open Sans';-inkscape-font-specification:'Open Sans Ultra-Bold';letter-spacing:0px;opacity:1;fill:#cccccc;stroke-width:13.8624"
           id="path12830" />
        <path
           d="m 240.17603,249.08082 q -14.14313,75.26868 -62.69216,117.50578 -48.2274,41.96636 -121.059329,41.96636 -69.853677,0 -103.18947,-43.04936 -33.065045,-43.04936 -19.278038,-116.42278 14.092256,-74.99794 62.2179129,-116.42279 48.4472831,-41.6956 121.5499641,-41.6956 45.21537,0 76.25935,19.2233 31.04399,19.2233 42.95946,55.23313 12.23711,35.73909 3.23231,83.66196 z m -198.730984,0 q -7.427686,39.52959 -0.785753,60.37739 6.69281,20.57705 31.601868,20.57705 24.638315,0 38.522549,-20.57705 14.20587,-20.8478 21.63355,-60.37739 7.37682,-39.25885 0.85301,-59.2944 -6.52381,-20.03555 -31.43286,-20.03555 -24.367563,0 -38.691557,20.03555 -14.27312,19.7648 -21.700807,59.2944 z"
           style="font-weight:800;font-size:493.152px;line-height:1.25;font-family:'Open Sans';-inkscape-font-specification:'Open Sans Ultra-Bold';letter-spacing:0px;opacity:1;fill:#cccccc;stroke-width:13.8624"
           id="path12832" />
        <path
           d="m 416.84947,403.13794 31.44048,-167.32391 q 5.74882,-30.59482 -0.28611,-46.02761 -5.71329,-15.70354 -25.20733,-15.70354 -26.80433,0 -42.73644,21.3893 -15.93212,21.38931 -25.70003,73.37344 L 329.12625,403.13794 H 223.26274 L 280.90362,96.377446 h 79.87145 l 6.14435,37.905094 h 6.22726 q 17.60749,-21.66006 43.46854,-32.49009 26.13179,-10.83002 57.26812,-10.83002 50.90112,0 73.51385,29.51182 22.8835,29.51183 12.81034,83.12045 l -37.49455,199.54324 z"
           style="font-weight:800;font-size:493.152px;line-height:1.25;font-family:'Open Sans';-inkscape-font-specification:'Open Sans Ultra-Bold';letter-spacing:0px;opacity:1;fill:#cccccc;stroke-width:13.8624"
           id="path12834" />
        <path
           d="M 791.3584,175.70738 H 726.10749 L 683.37286,403.13794 H 577.50935 l 42.73463,-227.43056 h -40.6126 l 9.76792,-51.98412 47.66257,-25.992065 0.96661,-5.144262 q 11.39591,-60.648147 41.01992,-87.1817121 29.89478,-26.5335649 84.58641,-26.5335649 21.11854,0 39.18985,3.249008 18.34205,3.249008 41.72487,11.3715274 L 808.93521,61.992109 q -18.47655,-5.415013 -37.15835,-5.415013 -12.18378,0 -19.29403,7.581018 -6.78864,7.310268 -9.94286,24.096808 l -1.52623,8.122524 h 65.25091 z"
           style="font-weight:800;font-size:493.152px;line-height:1.25;font-family:'Open Sans';-inkscape-font-specification:'Open Sans Ultra-Bold';letter-spacing:0px;opacity:1;fill:#cccccc;stroke-width:13.8624"
           id="path12836" />
        <path
           d="m 898.54412,408.55296 q -69.85366,0 -101.75208,-40.6126 -31.57679,-40.88335 -18.1459,-112.36153 13.787,-73.37342 58.22391,-115.33978 44.43689,-41.966347 108.33405,-41.966347 59.2944,0 86.9134,36.009837 27.619,36.00983 15.7652,99.09474 l -6.4611,34.38533 H 841.87845 q -6.83706,43.59086 10.93841,67.14617 17.82634,23.28455 58.1682,23.28455 26.53356,0 50.19236,-4.8735 23.9804,-5.14428 52.43078,-16.78655 l -9.717,51.71337 q -25.37038,11.10078 -50.06133,15.70354 -24.69092,4.60277 -55.28575,4.60277 z m 37.60432,-262.08664 q -30.32409,0 -52.34722,19.22329 -21.75239,19.2233 -32.19109,56.04539 h 135.91683 q 6.42832,-37.09284 -7.33851,-56.04539 -13.71594,-19.22329 -44.04001,-19.22329 z"
           id="path12838"
           style="font-weight:600;font-size:493.152px;line-height:1.25;font-family:'Open Sans';-inkscape-font-specification:'Open Sans Semi-Bold';letter-spacing:0px;opacity:1;fill:#cccccc;stroke-width:13.8624" />
        <path
           d="m 1165.9401,408.55296 q -67.9585,0 -95.9992,-39.5296 -27.719,-39.80035 -13.7794,-113.98603 14.194,-75.53943 58.6473,-116.15203 44.724,-40.612597 114.5777,-40.612597 47.3814,0 81.9796,17.598787 l -28.8385,51.17187 q -37.3912,-15.70354 -63.6541,-15.70354 -77.7054,0 -97.0886,103.156 -9.4627,50.35963 4.9785,75.81019 14.7627,25.17982 52.1263,25.17982 42.5078,0 84.3811,-21.11856 l -10.4293,55.50389 q -18.9397,10.01778 -39.2477,14.34979 -20.0371,4.33201 -47.6537,4.33201 z"
           id="path12840"
           style="font-weight:600;font-size:493.152px;line-height:1.25;font-family:'Open Sans';-inkscape-font-specification:'Open Sans Semi-Bold';letter-spacing:0px;opacity:1;fill:#cccccc;stroke-width:13.8624" />
        <path
           d="m 1412.0171,357.11033 q 23.2845,0 47.9427,-7.31026 l -9.0049,47.92286 q -11.4241,4.60276 -28.7703,7.58102 -17.1262,3.24901 -34.9958,3.24901 -90.4306,0 -72.5228,-95.30423 l 30.3213,-161.3674 h -40.8834 l 5.291,-28.15807 48.2366,-23.28456 33.5648,-63.355653 h 39.2588 L 1417.94,103.68771 h 85.2866 l -9.0557,48.19362 h -85.2866 l -30.1177,160.28439 q -4.3244,23.0138 4.9614,34.11459 9.6073,10.83002 28.2891,10.83002 z"
           id="path12842"
           style="font-weight:600;font-size:493.152px;line-height:1.25;font-family:'Open Sans';-inkscape-font-specification:'Open Sans Semi-Bold';letter-spacing:0px;opacity:1;fill:#cccccc;stroke-width:13.8624" />
        <path
           d="m 1764.1724,252.87132 q -13.787,73.37344 -59.1542,114.52753 -45.3672,41.15411 -112.5134,41.15411 -41.9663,0 -70.6245,-18.95255 -28.6582,-18.95254 -39.3216,-54.42089 -10.6635,-35.46833 -1.8622,-82.3082 13.6853,-72.83193 58.731,-113.71528 45.0456,-40.883337 113.0041,-40.883337 64.9801,0 94.9996,41.966347 30.0704,41.6956 16.7412,112.63227 z m -217.9542,0 q -19.4848,103.69751 57.1376,103.69751 75.8101,0 95.295,-103.69751 19.2815,-102.61449 -57.0702,-102.61449 -40.0711,0 -63.1972,26.53356 -22.8551,26.53356 -32.1652,76.08093 z"
           id="path12844"
           style="font-weight:600;font-size:493.152px;line-height:1.25;font-family:'Open Sans';-inkscape-font-specification:'Open Sans Semi-Bold';letter-spacing:0px;opacity:1;fill:#cccccc;stroke-width:13.8624" />
        <path
           d="m 1962.1514,98.272703 q 19.2233,0 31.1691,2.707497 l -17.3688,59.2944 q -12.927,-3.24901 -27.5476,-3.24901 -38.1758,0 -66.6824,24.90906 -28.2357,24.90906 -35.7143,64.70941 l -29.4055,156.49388 h -63.6264 l 56.2673,-299.45023 h 49.8182 l -1.5274,52.79638 h 3.249 q 19.9279,-26.80432 46.7047,-42.50786 27.0475,-15.703527 54.6641,-15.703527 z"
           id="path12846"
           style="font-weight:600;font-size:493.152px;line-height:1.25;font-family:'Open Sans';-inkscape-font-specification:'Open Sans Semi-Bold';letter-spacing:0px;opacity:1;fill:#cccccc;stroke-width:13.8624" />
        <path
           d="m 1994.9409,103.68771 h 69.3121 l 29.0206,169.76067 q 6.991,36.28059 5.5906,68.22916 h 2.166 q 5.2348,-14.89128 15.7012,-36.00984 10.517,-21.3893 106.7231,-201.97999 h 68.7706 l -191.8109,339.25058 q -52.4785,93.40898 -133.9745,93.40898 -21.1186,0 -40.2892,-4.60276 l 9.4626,-50.35962 q 13.7393,3.249 32.1504,3.249 46.0276,0 74.7316,-53.33787 l 16.3918,-28.15808 z"
           id="path12848"
           style="font-weight:600;font-size:493.152px;line-height:1.25;font-family:'Open Sans';-inkscape-font-specification:'Open Sans Semi-Bold';letter-spacing:0px;opacity:1;fill:#cccccc;stroke-width:13.8624" />
      </g>
      <g
         id="g17648"
         style="opacity:0.636086;fill:#6c5353;fill-opacity:1"
         transform="matrix(0.0960601,0,0,0.0960601,-1073.8142,-93.742927)"
         inkscape:label="confectory-text-fg">
        <path
           d="m -201.03698,408.55296 q -75.2687,0 -106.6256,-40.6126 -31.08616,-40.61261 -16.79041,-116.69354 14.34663,-76.35169 64.19854,-118.31803 49.85191,-41.96636 127.2866,-41.96636 53.337888,0 96.073285,23.28456 l -45.839077,78.24694 q -17.646188,-8.39327 -32.975478,-13.26679 -15.27843,-5.14426 -32.87722,-5.14426 -25.72131,0 -43.56507,20.03555 -17.84375,20.03555 -24.71182,56.58689 -13.83788,73.64418 40.583,73.64418 46.56912,0 94.435181,-27.07507 l -15.821987,84.20346 q -45.970814,27.07507 -103.369944,27.07507 z"
           style="font-weight:800;font-size:493.152px;line-height:1.25;font-family:'Open Sans';-inkscape-font-specification:'Open Sans Ultra-Bold';letter-spacing:0px;opacity:1;fill:#6c5353;fill-opacity:1;stroke-width:13.8624"
           id="path11895" />
        <path
           d="m 240.17603,249.08082 q -14.14313,75.26868 -62.69216,117.50578 -48.2274,41.96636 -121.059329,41.96636 -69.853677,0 -103.18947,-43.04936 -33.065045,-43.04936 -19.278038,-116.42278 14.092256,-74.99794 62.2179129,-116.42279 48.4472831,-41.6956 121.5499641,-41.6956 45.21537,0 76.25935,19.2233 31.04399,19.2233 42.95946,55.23313 12.23711,35.73909 3.23231,83.66196 z m -198.730984,0 q -7.427686,39.52959 -0.785753,60.37739 6.69281,20.57705 31.601868,20.57705 24.638315,0 38.522549,-20.57705 14.20587,-20.8478 21.63355,-60.37739 7.37682,-39.25885 0.85301,-59.2944 -6.52381,-20.03555 -31.43286,-20.03555 -24.367563,0 -38.691557,20.03555 -14.27312,19.7648 -21.700807,59.2944 z"
           style="font-weight:800;font-size:493.152px;line-height:1.25;font-family:'Open Sans';-inkscape-font-specification:'Open Sans Ultra-Bold';letter-spacing:0px;opacity:1;fill:#6c5353;fill-opacity:1;stroke-width:13.8624"
           id="path11897" />
        <path
           d="m 416.84947,403.13794 31.44048,-167.32391 q 5.74882,-30.59482 -0.28611,-46.02761 -5.71329,-15.70354 -25.20733,-15.70354 -26.80433,0 -42.73644,21.3893 -15.93212,21.38931 -25.70003,73.37344 L 329.12625,403.13794 H 223.26274 L 280.90362,96.377446 h 79.87145 l 6.14435,37.905094 h 6.22726 q 17.60749,-21.66006 43.46854,-32.49009 26.13179,-10.83002 57.26812,-10.83002 50.90112,0 73.51385,29.51182 22.8835,29.51183 12.81034,83.12045 l -37.49455,199.54324 z"
           style="font-weight:800;font-size:493.152px;line-height:1.25;font-family:'Open Sans';-inkscape-font-specification:'Open Sans Ultra-Bold';letter-spacing:0px;opacity:1;fill:#6c5353;fill-opacity:1;stroke-width:13.8624"
           id="path11899" />
        <path
           d="M 791.3584,175.70738 H 726.10749 L 683.37286,403.13794 H 577.50935 l 42.73463,-227.43056 h -40.6126 l 9.76792,-51.98412 47.66257,-25.992065 0.96661,-5.144262 q 11.39591,-60.648147 41.01992,-87.1817121 29.89478,-26.5335649 84.58641,-26.5335649 21.11854,0 39.18985,3.249008 18.34205,3.249008 41.72487,11.3715274 L 808.93521,61.992109 q -18.47655,-5.415013 -37.15835,-5.415013 -12.18378,0 -19.29403,7.581018 -6.78864,7.310268 -9.94286,24.096808 l -1.52623,8.122524 h 65.25091 z"
           style="font-weight:800;font-size:493.152px;line-height:1.25;font-family:'Open Sans';-inkscape-font-specification:'Open Sans Ultra-Bold';letter-spacing:0px;opacity:1;fill:#6c5353;fill-opacity:1;stroke-width:13.8624"
           id="path11901" />
        <path
           d="m 898.54412,408.55296 q -69.85366,0 -101.75208,-40.6126 -31.57679,-40.88335 -18.1459,-112.36153 13.787,-73.37342 58.22391,-115.33978 44.43689,-41.966347 108.33405,-41.966347 59.2944,0 86.9134,36.009837 27.619,36.00983 15.7652,99.09474 l -6.4611,34.38533 H 841.87845 q -6.83706,43.59086 10.93841,67.14617 17.82634,23.28455 58.1682,23.28455 26.53356,0 50.19236,-4.8735 23.9804,-5.14428 52.43078,-16.78655 l -9.717,51.71337 q -25.37038,11.10078 -50.06133,15.70354 -24.69092,4.60277 -55.28575,4.60277 z m 37.60432,-262.08664 q -30.32409,0 -52.34722,19.22329 -21.75239,19.2233 -32.19109,56.04539 h 135.91683 q 6.42832,-37.09284 -7.33851,-56.04539 -13.71594,-19.22329 -44.04001,-19.22329 z"
           id="path11903"
           style="font-weight:600;font-size:493.152px;line-height:1.25;font-family:'Open Sans';-inkscape-font-specification:'Open Sans Semi-Bold';letter-spacing:0px;opacity:1;fill:#6c5353;fill-opacity:1;stroke-width:13.8624" />
        <path
           d="m 1165.9401,408.55296 q -67.9585,0 -95.9992,-39.5296 -27.719,-39.80035 -13.7794,-113.98603 14.194,-75.53943 58.6473,-116.15203 44.724,-40.612597 114.5777,-40.612597 47.3814,0 81.9796,17.598787 l -28.8385,51.17187 q -37.3912,-15.70354 -63.6541,-15.70354 -77.7054,0 -97.0886,103.156 -9.4627,50.35963 4.9785,75.81019 14.7627,25.17982 52.1263,25.17982 42.5078,0 84.3811,-21.11856 l -10.4293,55.50389 q -18.9397,10.01778 -39.2477,14.34979 -20.0371,4.33201 -47.6537,4.33201 z"
           id="path11905"
           style="font-weight:600;font-size:493.152px;line-height:1.25;font-family:'Open Sans';-inkscape-font-specification:'Open Sans Semi-Bold';letter-spacing:0px;opacity:1;fill:#6c5353;fill-opacity:1;stroke-width:13.8624" />
        <path
           d="m 1412.0171,357.11033 q 23.2845,0 47.9427,-7.31026 l -9.0049,47.92286 q -11.4241,4.60276 -28.7703,7.58102 -17.1262,3.24901 -34.9958,3.24901 -90.4306,0 -72.5228,-95.30423 l 30.3213,-161.3674 h -40.8834 l 5.291,-28.15807 48.2366,-23.28456 33.5648,-63.355653 h 39.2588 L 1417.94,103.68771 h 85.2866 l -9.0557,48.19362 h -85.2866 l -30.1177,160.28439 q -4.3244,23.0138 4.9614,34.11459 9.6073,10.83002 28.2891,10.83002 z"
           id="path11907"
           style="font-weight:600;font-size:493.152px;line-height:1.25;font-family:'Open Sans';-inkscape-font-specification:'Open Sans Semi-Bold';letter-spacing:0px;opacity:1;fill:#6c5353;fill-opacity:1;stroke-width:13.8624" />
        <path
           d="m 1764.1724,252.87132 q -13.787,73.37344 -59.1542,114.52753 -45.3672,41.15411 -112.5134,41.15411 -41.9663,0 -70.6245,-18.95255 -28.6582,-18.95254 -39.3216,-54.42089 -10.6635,-35.46833 -1.8622,-82.3082 13.6853,-72.83193 58.731,-113.71528 45.0456,-40.883337 113.0041,-40.883337 64.9801,0 94.9996,41.966347 30.0704,41.6956 16.7412,112.63227 z m -217.9542,0 q -19.4848,103.69751 57.1376,103.69751 75.8101,0 95.295,-103.69751 19.2815,-102.61449 -57.0702,-102.61449 -40.0711,0 -63.1972,26.53356 -22.8551,26.53356 -32.1652,76.08093 z"
           id="path11909"
           style="font-weight:600;font-size:493.152px;line-height:1.25;font-family:'Open Sans';-inkscape-font-specification:'Open Sans Semi-Bold';letter-spacing:0px;opacity:1;fill:#6c5353;fill-opacity:1;stroke-width:13.8624" />
        <path
           d="m 1962.1514,98.272703 q 19.2233,0 31.1691,2.707497 l -17.3688,59.2944 q -12.927,-3.24901 -27.5476,-3.24901 -38.1758,0 -66.6824,24.90906 -28.2357,24.90906 -35.7143,64.70941 l -29.4055,156.49388 h -63.6264 l 56.2673,-299.45023 h 49.8182 l -1.5274,52.79638 h 3.249 q 19.9279,-26.80432 46.7047,-42.50786 27.0475,-15.703527 54.6641,-15.703527 z"
           id="path11911"
           style="font-weight:600;font-size:493.152px;line-height:1.25;font-family:'Open Sans';-inkscape-font-specification:'Open Sans Semi-Bold';letter-spacing:0px;opacity:1;fill:#6c5353;fill-opacity:1;stroke-width:13.8624" />
        <path
           d="m 1994.9409,103.68771 h 69.3121 l 29.0206,169.76067 q 6.991,36.28059 5.5906,68.22916 h 2.166 q 5.2348,-14.89128 15.7012,-36.00984 10.517,-21.3893 106.7231,-201.97999 h 68.7706 l -191.8109,339.25058 q -52.4785,93.40898 -133.9745,93.40898 -21.1186,0 -40.2892,-4.60276 l 9.4626,-50.35962 q 13.7393,3.249 32.1504,3.249 46.0276,0 74.7316,-53.33787 l 16.3918,-28.15808 z"
           id="path11913"
           style="font-weight:600;font-size:493.152px;line-height:1.25;font-family:'Open Sans';-inkscape-font-specification:'Open Sans Semi-Bold';letter-spacing:0px;opacity:1;fill:#6c5353;fill-opacity:1;stroke-width:13.8624" />
      </g>
      <ellipse
         style="opacity:0.210366;mix-blend-mode:normal;fill:#000000;fill-opacity:1;stroke-width:0.635;stroke-linecap:square;stroke-linejoin:round;paint-order:stroke markers fill;filter:url(#filter32582)"
         id="path32402"
         cx="-841.21252"
         cy="569.16437"
         rx="211.78438"
         ry="20.205576"
         transform="matrix(0.09156301,0,0,0.09156301,-1076.0365,-91.761006)"
         inkscape:label="donut-shadow" />
      <g
         id="g7988"
         inkscape:label="json-logo"
         transform="matrix(0.0940463,0,0,0.0940463,-1073.9475,-93.224157)">
        <path
           d="m -841.15732,402.37015 c 146.3399,199.49169 289.55338,-55.68136 289.34151,-209.13453 -0.24547,-181.425612 -184.13605,-282.825107 -289.46037,-282.825107 -169.05432,-0.0026 -330.04962,139.712402 -330.04962,330.873857 0,212.47799 184.54946,330.17106 330.04962,330.17106 -32.92564,-4.74131 -142.65279,-28.2515 -144.12557,-280.98285 -0.99477,-170.93013 55.75887,-239.223119 143.88786,-209.181029 1.97404,0.73123 97.20853,38.299989 97.20853,161.023769 0,122.20442 -96.85196,160.05224 -96.85196,160.05224 z"
           fill="url(#a)"
           id="path14"
           style="fill:url(#linearGradient25857);fill-opacity:1;stroke-width:2.58382"
           inkscape:label="path-left" />
        <path
           d="m -841.32786,81.152031 c -96.69694,-33.328717 -215.15224,46.369259 -215.15224,205.997759 0,260.64817 193.14842,284.30564 216.56301,284.30564 169.05428,0 330.04962,-139.71757 330.04962,-330.87644 0,-212.477986 -184.54946,-330.17106 -330.04962,-330.17106 40.29987,-5.581055 217.20896,43.614908 217.20896,285.40376 0,157.6803 -132.09529,243.52002 -218.01253,206.84526 -1.97404,-0.73122 -97.21112,-38.29999 -97.21112,-161.02376 0,-122.20701 96.60392,-160.481159 96.60392,-160.481159 z"
           fill="url(#b)"
           id="path16"
           style="fill:url(#linearGradient4796);fill-opacity:1;stroke-width:2.58382"
           inkscape:label="path-right" />
      </g>
      <g
         id="g7984"
         inkscape:label="donut-cover-group"
         transform="matrix(0.0940463,0,0,0.0940463,-1073.9475,-93.224157)">
        <path
           id="path23634"
           style="fill:#702d00;fill-opacity:1;stroke-width:2.58382"
           d="m -843.30273,-102.08789 c -43.44941,0.30657 -86.69367,9.499431 -126.66797,26.201171 -65.2977,27.232092 -122.2023,74.5529572 -160.4063,134.208985 -22.9866,35.794378 -39.1911,75.989064 -47.2187,117.806644 -3.7377,19.28333 -5.757,38.88002 -6.1309,58.48828 -0.4963,16.40807 -3.6504,50.6458 26.1485,49.35156 26.8807,-1.16749 28.079,-30.85037 41.9082,-30.40234 14.7749,0.47866 15.402,42.9179 48.6543,43.92968 5.7074,0.17368 6.9141,-0.0183 13.3652,-0.75195 l 0.1465,-0.0176 0.1445,-0.0215 c 40.547,-5.98307 32.8238,-52.05042 59.09963,-48.97656 10.31688,1.2069 10.10701,37.67588 44.60547,34.71679 14.90052,-1.27808 25.79907,-5.23702 24.21485,-44.14062 l 0.006,0.51758 c 0.34476,-18.87919 3.01826,-37.53018 8.86328,-55.17774 5.22637,-15.82702 13.00751,-30.89745 22.98242,-44.21094 11.15801,-14.87531 24.99298,-27.78437 40.66211,-37.80273 3.76668,-2.394241 7.55838,-4.516705 11.39453,-6.460938 6.0392,2.92612 11.91556,6.362888 17.74023,10.355468 14.13704,9.82943 26.67205,22.14827 36.74414,36.11133 l 0.006,0.008 0.006,0.01 c 11.08238,15.28615 19.14552,32.74367 24.00586,51.09961 3.17757,16.8974 4.75307,23.92562 5.24805,46.03906 l -0.002,-0.33008 c -0.3897,25.63754 9.57789,42.4606 31.02148,43.04688 9.07289,0.24805 16.31741,-2.18303 21.63281,-7.33204 10.56722,-10.2364 9.69993,-27.90268 12.40039,-37.14062 1.36949,-4.68484 2.68692,-6.40065 7.32227,-6.50977 5.9611,-0.14032 7.11489,8.38572 8.26367,26.1211 1.15071,17.76516 2.12172,42.9316 22.7832,48.20508 l -1.29296,-0.43946 c 6.64501,2.85031 16.0907,2.57362 28.41992,0.20703 29.67664,-5.69643 35.19177,-32.59678 38.03711,-52.88867 2.85476,-20.35913 3.44685,-29.92803 11.43164,-29.40039 8.8406,0.58419 11.06148,4.19812 12.58984,10.76758 2.92149,12.55757 -0.18665,34.48358 11.23242,47.5625 5.95656,6.82239 13.98076,10.07167 25.37696,10.39062 20.58273,0.57606 31.23484,-11.76398 30.12109,-52.08789 -0.25904,-38.59143 -6.49985,-77.36005 -19.61133,-113.88867 -14.51225,-40.64016 -37.33473,-78.233744 -66.39648,-110.04492 -43.9841,-48.252855 -101.52091,-83.702004 -163.87305,-102.455078 h -0.006 l -0.004,-0.002 c -22.94907,-6.872997 -46.64806,-11.447496 -70.6211,-13.292972 -0.0135,-0.001 -0.0275,-0.002 -0.041,-0.004 -0.0869,-0.007 -0.17288,-0.0207 -0.25977,-0.0273 l -0.0703,-0.006 c -2.49458,-0.27467 -5.01343,-0.53192 -7.55274,-0.74414 l -0.0293,-0.002 -0.0274,-0.002 c -5.43019,-0.41787 -10.89269,-0.6212 -16.36718,-0.58398 z"
           inkscape:label="path-right-1" />
        <path
           id="path8983"
           style="opacity:1;fill:url(#linearGradient100804);fill-opacity:1;stroke-width:2.58382"
           d="m -820.03295,-92.462891 c -1.45305,0.438926 -3.29153,0.982631 -3.71094,2.658203 -0.62436,1.916536 0.9748,3.810328 2.74426,4.348935 2.26531,0.818023 4.71022,0.856304 7.03007,1.462022 17.60486,3.511062 34.55368,9.88379 50.56669,18.004329 29.2418,14.900011 55.10718,36.282971 75.44377,61.9874691 21.30315,26.7894019 36.51002,58.1073929 46.05202,90.8917339 9.78637,33.434279 13.96448,68.288359 14.38205,103.084129 0.13405,11.00335 -0.17008,21.98564 -1.33409,32.92255 -0.54252,5.2618 -1.24385,10.52258 -2.05469,15.75782 -3.67626,18.85488 -57.56211,68.23283 2.02413,56.79525 47.46812,-9.11151 17.91199,-84.66209 51.70634,-82.42894 41.72019,2.75689 2.20512,67.4002 48.86482,68.70609 13.70264,0.3835 22.10701,-6.0187 21.07854,-43.0744 -0.23705,-37.75371 -6.33229,-75.57567 -19.10179,-111.14648 -14.11399,-39.524822 -36.3132,-76.099023 -64.61299,-107.076146 -42.89142,-47.054131 -99.00445,-81.639004 -159.90534,-99.955603 -22.47978,-6.732433 -45.65706,-11.198756 -69.06347,-12.978017 l -0.0936,0.03511 z"
           sodipodi:nodetypes="ccccccccccsssccccccc"
           inkscape:label="path-right-2" />
        <path
           id="path8985"
           style="opacity:1;fill:url(#linearGradient96604);fill-opacity:1;stroke-width:2.58382"
           d="m -890.26758,70.029297 c -26.78314,0.811749 -53.167,9.190412 -75.88646,23.316841 -23.63962,14.590582 -43.43746,35.053052 -58.17116,58.538572 -15.1999,24.13016 -25.2294,51.31673 -30.6233,79.26475 -0.2437,1.59661 -0.7422,3.18092 -0.7019,4.80562 -13.9457,38.2744 -15.2279,49.57962 1.0059,52.04509 34.0073,-5.01808 28.4993,-52.86135 61.40901,-49.01143 18.64106,2.18071 13.51964,37.20373 42.8297,34.68967 11.14478,-0.95594 17.48671,-2.76354 16.17337,-35.01652 0.35773,-19.59331 3.13921,-39.15615 9.30664,-57.77734 5.51575,-16.7032 13.73686,-32.6345 24.29926,-46.7321 11.77729,-15.70091 26.39602,-29.34356 42.961,-39.934687 6.51225,-4.140532 13.258,-7.910513 20.44792,-10.756824 2.15601,-0.870686 4.33597,-1.679624 6.51643,-2.48655 -12.74089,-4.820625 -25.94119,-8.706756 -39.53476,-10.101966 -6.64408,-0.755798 -13.34727,-1.019402 -20.03165,-0.843346 z"
           sodipodi:nodetypes="ccccccssccccccccc"
           inkscape:label="path-left-2" />
        <path
           id="path9512"
           style="fill:#552200;fill-opacity:1;stroke-width:2.58382"
           d="m -843.24023,-93.289062 c -42.26838,0.298233 -84.37099,9.24014 -123.34375,25.523437 -63.68382,26.559051 -119.14712,72.690313 -156.38192,130.833205 -22.3999,34.878014 -38.1774,74.01886 -45.9916,114.73554 -3.6388,18.77288 -5.6057,37.86362 -5.9702,56.98204 -0.5136,17.21711 -2.9801,41.25899 16.9676,40.39261 21.1451,-0.91838 22.6331,-31.0521 42.5746,-30.40605 22.1791,0.71854 21.4193,43.09958 48.6372,43.92776 5.5243,0.16809 5.4972,0.0521 12.1038,-0.69931 0.5411,-8.12022 3.6897,-37.06765 5.83,-49.34802 4.151,-24.15355 11.625,-47.85839 23.0912,-69.54966 13.1118,-24.88694 31.54231,-47.14072 54.51558,-63.51296 16.19138,-11.561351 34.55352,-20.14622 53.91866,-24.611204 12.9074,-2.97971 26.22312,-4.153866 39.46159,-3.335251 10.86806,0.660261 21.77414,2.660335 32.18836,6.010976 1.33753,0.605288 2.71252,1.111345 4.07743,1.646163 8.01996,3.476462 15.53645,8.022645 22.77066,12.982799 14.96105,10.398427 28.2236,23.430267 38.88167,38.205687 11.79848,16.27389 20.3489,34.82849 25.46201,54.25612 3.21216,17.1073 4.9494,24.93621 5.46235,47.85172 -0.34267,22.5437 7.41796,33.70525 22.46467,34.11663 36.13568,0.98796 11.11596,-50.28077 40.90708,-50.98205 31.35981,-0.73821 2.11539,76.16987 39.28911,75.20426 16.16284,-0.41983 22.22745,-39.87765 23.96085,-58.28274 1.89932,-19.18412 3.84577,-38.29793 3.12426,-57.50711 -1.14786,-38.3581 -7.04582,-76.7919 -19.89372,-113.041198 -11.13858,-31.424326 -27.73658,-61.0753046 -49.82647,-86.127562 -23.96158,-27.287878 -54.22519,-49.1062 -87.92364,-62.72002 -9.14056,-3.659392 -18.50557,-6.824146 -28.11148,-9.007931 -7.46739,-1.464688 -15.03844,-2.346442 -22.61782,-2.979873 -5.19871,-0.400071 -10.41348,-0.593166 -15.62808,-0.557708 z"
           sodipodi:nodetypes="cccccsssccccccccccccsssccccccccc"
           inkscape:label="path-left-1" />
        <path
           id="path22217"
           style="opacity:0.880734;fill:#ffffff;fill-opacity:0.992395;stroke-width:9.76562;filter:url(#filter22608)"
           d="m 1293.8359,57.505859 c -24.6237,0.250411 -49.2439,1.127878 -73.8076,2.886262 -53.0241,3.730753 -105.7897,11.046082 -157.8517,21.754785 -38.5673,7.941677 -76.75519,17.731976 -114.38972,29.304954 -41.59414,12.81436 -82.51753,27.80231 -122.56124,44.85373 C 677.58391,219.15747 542.06947,310.16095 427.62891,422.61133 366.72485,482.44851 311.78514,548.38497 264.20922,619.2919 219.38723,686.04097 181.05087,757.15658 150.09997,831.36922 119.77529,903.98576 96.438527,979.52935 80.796001,1056.6588 c -7.312166,35.8834 -13.052724,72.088 -17.129299,108.4825 -3.967588,35.5449 -6.458827,71.2568 -7.396498,107.0109 -0.422718,15.9008 -1.073452,31.8156 -1.476709,47.7327 -0.321575,15.4731 -0.243194,31.0064 1.604905,46.3916 1.28129,10.1934 3.365622,20.4114 7.6016,29.8231 2.990333,6.5123 7.34133,12.6518 13.505338,16.4934 5.524056,3.4981 12.046292,5.0706 18.51698,5.4756 2.644589,0.1978 5.298212,0.1313 7.946432,0.06 -0.19014,-18.675 0.74549,-37.2731 1.32227,-55.9316 0.29536,-14.7239 0.82161,-29.4276 1.61423,-44.1513 0.66328,-12.5502 1.53127,-25.1768 2.56154,-37.6946 1.39633,-16.846 3.10737,-33.5639 5.16616,-50.3365 3.56572,-29.1203 8.17166,-58.252 13.77954,-87.0837 6.32503,-32.6559 13.97025,-65.0418 22.91183,-97.0944 8.96415,-32.155 19.26263,-63.9845 30.79631,-95.34979 5.77963,-15.72858 11.9487,-31.49111 18.36032,-46.9788 7.70766,-18.61642 15.87394,-37.04225 24.46046,-55.26993 13.43108,-28.45738 27.96919,-56.51028 43.51291,-83.91824 13.4048,-23.64963 27.61438,-46.93867 42.53151,-69.7055 22.93908,-35.02215 47.68432,-69.00741 73.94281,-101.59565 21.04304,-26.11147 43.03526,-51.33592 66.04201,-75.75206 12.23252,-12.99284 24.81997,-25.80913 37.57623,-38.29027 40.46827,-39.58059 83.50617,-76.57461 128.71808,-110.66814 72.08398,-54.35846 149.78525,-101.40643 231.47414,-139.92693 24.14876,-11.38883 48.57763,-22.01005 73.39259,-31.89141 51.35865,-20.45618 104.03831,-37.6217 157.63231,-51.27068 14.8898,-3.7959 29.9177,-7.33041 44.9068,-10.56578 22.3801,-4.83569 44.8341,-9.04856 67.4397,-12.65543 28.7676,-4.57908 57.7696,-8.16914 86.8215,-10.69412 20.7345,-1.81142 41.5135,-3.07415 62.3492,-3.81579 16.5801,-0.55832 33.2288,-0.85662 49.8431,-0.6343 8.3142,0.12804 16.5926,0.414 24.9187,0.85065 14.5318,0.75179 29.2033,1.96805 43.6758,3.52584 20.5873,2.23062 41.1374,4.91554 61.4829,9.03444 5.8137,1.14684 11.5271,2.57872 17.2213,4.01449 23.9974,6.17461 47.6853,13.81326 70.9629,22.46649 12.7832,4.74752 25.5233,9.85582 38.1082,15.19942 1.6413,0.0775 3.2826,0.15495 4.9239,0.23242 -1.0829,-1.2751 -2.1042,-2.6227 -3.2251,-3.8531 -51.7282,-30.33167 -106.6501,-55.28866 -163.7078,-73.777321 -16.6827,-5.36001 -33.5578,-10.165166 -50.6673,-13.970756 -9.4988,-1.963611 -19.0863,-3.46577 -28.6786,-4.890514 -20.3886,-2.971303 -40.8972,-5.08815 -61.4447,-6.588657 -16.9252,-1.161011 -33.8944,-1.647262 -50.8586,-1.591523 z m 325.8594,977.529341 c 7.9864,20.0483 14.997,40.4865 20.9434,61.2324 1.115,3.9438 2.2547,8.0289 3.3114,12.0462 1.6959,6.3627 2.6974,12.8824 3.9338,19.3436 5.9542,31.1102 11.5328,62.4012 14.2352,93.9617 1.4456,16.5625 2.4445,33.0774 3.046,49.6969 0.4165,11.6191 0.6847,23.2932 0.7528,34.9484 0.2574,14.588 1.4576,29.2251 4.6735,43.4813 2.6731,11.6512 6.6731,23.1775 13.3404,33.1805 4.57,6.8849 10.5667,12.8639 17.6887,17.0924 4.1061,2.5067 8.5792,4.3444 13.1603,5.7825 0.52,0.1033 1.4999,0.8056 1.1768,-0.1889 -0.3813,-5.4454 -0.632,-10.931 -0.7387,-16.3329 -0.1861,-7.7746 -0.096,-15.5536 -0.3958,-23.3257 -0.6747,-23.6119 -1.8574,-47.227 -4.3399,-70.7243 -1.8674,-17.8288 -4.6021,-35.554 -7.758,-53.1969 -2.4628,-13.6504 -5.0019,-27.2884 -7.6444,-40.9052 -1.294,-5.9363 -3.0982,-11.7444 -4.7609,-17.5841 -14.4525,-49.2867 -34.9436,-96.8466 -61.3389,-140.9241 -1.9182,-3.1591 -3.7863,-6.364 -5.8092,-9.4493 -1.28,-1.0845 -2.5599,-2.1691 -3.8398,-3.2537 0.1211,1.7064 0.2422,3.4128 0.3633,5.1192 z m 351.084,294.332 c -1.3957,-0.1089 -2.6732,1.2115 -2.39,2.6074 2.3208,26.6878 3.2398,53.5881 6.2154,80.2723 1.729,15.0078 4.0395,30.0349 8.5419,44.491 2.9486,9.2345 6.7706,18.3591 12.7264,26.0867 5.1018,6.722 12.1446,12.0142 20.1715,14.6981 2.7273,0.9703 5.576,1.5123 8.4008,2.1101 -1.193,-10.385 -2.1273,-20.7319 -2.8769,-31.1601 -1.5201,-20.48 -2.5102,-41.1017 -4.5613,-61.578 -1.3945,-13.3043 -3.1601,-26.6257 -6.5891,-39.5783 -2.2858,-8.2635 -5.1616,-16.512 -9.9772,-23.6738 -3.4816,-5.1536 -8.2256,-9.6762 -14.1235,-11.8904 -4.8644,-1.9031 -10.1489,-2.4617 -15.3349,-2.3792 -0.068,-0.01 -0.1352,-0.01 -0.2031,-0.01 z"
           transform="matrix(0.26458333,0,0,0.26458333,-1182.3426,-100.5663)"
           inkscape:label="glow" />
      </g>
      <g
         id="g20863"
         transform="matrix(0.0940463,0,0,0.0940463,-1073.9169,-93.379677)"
         inkscape:label="confetti-1">
        <path
           id="path6051"
           style="fill:#00ff66;stroke-width:0.0627915;stroke-linecap:square;stroke-linejoin:round;paint-order:stroke markers fill"
           d="m -1003.5134,157.4535 c 4.23748,-0.2413 7.74788,-2.8671 11.31838,-4.871 6.7183,-3.9369 13.6108,-7.6004 20.0605,-11.9766 4.8323,-4.3281 4.7757,-12.8918 -0.1883,-17.0976 -4.1737,-3.7411 -10.9287,-3.6216 -15.3136,-0.3067 -8.0295,4.7129 -16.24918,9.1169 -24.04488,14.2168 -4.829,4.1992 -4.9642,12.6367 -0.1546,16.9022 2.2347,2.0611 5.2813,3.2176 8.3225,3.1329 z" />
        <path
           id="path6053"
           style="fill:#ffffff;stroke-width:0.0627915;stroke-linecap:square;stroke-linejoin:round;paint-order:stroke markers fill"
           d="m -1081.2263,203.54924 c 4.2311,-0.22761 7.7424,-2.84119 11.3047,-4.84375 6.7518,-3.98489 13.7227,-7.62628 20.1856,-12.08008 4.7475,-4.34105 4.6649,-12.80321 -0.2419,-16.99259 -4.0696,-3.67934 -10.6347,-3.66332 -15.0277,-0.5621 -8.0284,4.83755 -16.3736,9.15262 -24.1757,14.35938 -3.247,2.56923 -4.4423,7.13385 -3.6359,11.09551 0.6113,3.15419 2.667,5.96521 5.4972,7.49042 1.8455,1.0438 3.9725,1.58751 6.0937,1.53321 z" />
        <path
           id="path6055"
           style="fill:#00ccff;fill-opacity:1;stroke-width:0.0627915;stroke-linecap:square;stroke-linejoin:round;paint-order:stroke markers fill"
           d="m -1078.361,127.76994 c 4.2335,-0.24244 7.7435,-2.85873 11.3125,-4.85937 6.7445,-3.99491 13.7221,-7.62055 20.1757,-12.0879 4.7473,-4.38552 4.6159,-12.907163 -0.3723,-17.059713 -4.2073,-3.70354 -10.9544,-3.52855 -15.321,-0.19224 -7.9896,4.66595 -16.1395,9.070803 -23.9024,14.113283 -4.841,4.14807 -5.07,12.54706 -0.3208,16.85188 2.2389,2.12946 5.3387,3.32314 8.4283,3.23406 z" />
      </g>
      <g
         id="g20848"
         transform="matrix(0.0940463,0,0,0.0940463,-1072.3615,-92.736932)"
         inkscape:label="confetti-2">
        <path
           id="path6057"
           style="fill:#00ff66;stroke-width:0.0627915;stroke-linecap:square;stroke-linejoin:round;paint-order:stroke markers fill"
           d="m -965.5258,26.887217 c -0.2413,-4.2375 -2.86711,-7.7479 -4.87109,-11.31836 -3.93684,-6.7183403 -7.60036,-13.6108403 -11.97656,-20.0605603 -4.32814,-4.8322 -12.89179,-4.7756 -17.0976,0.1883 -3.74115,4.17372005 -3.62165,10.92872 -0.3067,15.3136603 4.71295,8.02946 9.11689,16.24916 14.2168,24.04486 4.1992,4.829 12.63673,4.9642 16.9022,0.1546 2.06114,-2.2347 3.21757,-5.2813 3.13295,-8.3225 z" />
        <path
           id="path6059"
           style="fill:#ffffff;stroke-width:0.0627915;stroke-linecap:square;stroke-linejoin:round;paint-order:stroke markers fill"
           d="m -894.63408,-49.128058 c -4.2311,0.22761 -7.7424,2.84119 -11.3047,4.84375 -6.7518,3.98489 -13.7227,7.62628 -20.1856,12.08008 -4.7475,4.34105 -4.6649,12.80321 0.2419,16.99259 4.0696,3.67934 10.6347,3.66332 15.0277,0.5621 8.0284,-4.83755 16.3736,-9.15262 24.17575,-14.35938 3.24699,-2.56923 4.4423,-7.13385 3.63582,-11.09551 -0.6113,-3.15419 -2.667,-5.96521 -5.49717,-7.49042 -1.8455,-1.0438 -3.9725,-1.58751 -6.0937,-1.53321 z" />
        <path
           id="path6061"
           style="fill:#00ccff;fill-opacity:1;stroke-width:0.0627915;stroke-linecap:square;stroke-linejoin:round;paint-order:stroke markers fill"
           d="m -897.49938,26.651242 c -4.2335,0.24244 -7.7435,2.85873 -11.3125,4.85937 -6.7445,3.99491 -13.7221,7.62055 -20.1757,12.0879 -4.7473,4.38552 -4.6159,12.90716 0.3723,17.05971 4.2073,3.70354 10.9544,3.52855 15.321,0.19224 7.9896,-4.66595 16.1395,-9.0708 23.9024,-14.11328 4.841,-4.14807 5.07004,-12.54706 0.3208,-16.85188 -2.2389,-2.12946 -5.3387,-3.32314 -8.4283,-3.23406 z" />
      </g>
      <g
         id="g20853"
         transform="matrix(0.0940463,0,0,0.0940463,-1071.4085,-91.694582)"
         inkscape:label="confetti-3">
        <path
           id="path31338"
           style="fill:#00ff66;stroke-width:0.0627915;stroke-linecap:square;stroke-linejoin:round;paint-order:stroke markers fill"
           d="m -722.83527,-6.0101012 c 0.2413,4.23748 2.86711,7.74785 4.87109,11.31836 3.93685,6.7183502 7.60036,13.6108502 11.97657,20.0605502 4.32813,4.8323 12.89178,4.77571 17.0976,-0.18835 3.74111,-4.17371 3.62161,-10.92864 0.30669,-15.3136102 -4.71295,-8.02947 -9.11689,-16.24915 -14.21679,-24.0449198 -4.19921,-4.82899 -12.63674,-4.9642 -16.90221,-0.1546 -2.06113,2.23479 -3.21756,5.2813198 -3.13295,8.3225698 z" />
        <path
           id="path31348"
           style="fill:#ffffff;stroke-width:0.0627915;stroke-linecap:square;stroke-linejoin:round;paint-order:stroke markers fill"
           d="m -793.72698,70.005167 c 4.23108,-0.22761 7.74235,-2.84119 11.30469,-4.84375 6.75182,-3.98489 13.72265,-7.626273 20.18554,-12.080078 4.74753,-4.341053 4.66491,-12.803204 -0.24185,-16.992584 -4.06961,-3.67934 -10.63476,-3.663329 -15.02768,-0.562103 -8.02846,4.83755 -16.37366,9.152618 -24.17578,14.359375 -3.24699,2.569232 -4.4423,7.133854 -3.63582,11.095508 0.6113,3.154202 2.667,5.965222 5.49715,7.490432 1.84553,1.04379 3.97252,1.5875 6.09375,1.5332 z" />
        <path
           id="path31360"
           style="fill:#00ccff;fill-opacity:1;stroke-width:0.0627915;stroke-linecap:square;stroke-linejoin:round;paint-order:stroke markers fill"
           d="m -790.86175,-5.7741299 c 4.23355,-0.242436 7.74358,-2.858728 11.3125,-4.8593741 6.7445,-3.994905 13.7221,-7.620544 20.17578,-12.087891 4.74728,-4.385525 4.6159,-12.907167 -0.37238,-17.059717 -4.20729,-3.70354 -10.95434,-3.52855 -15.32097,-0.19224 -7.98959,4.66595 -16.13948,9.070799 -23.90235,14.113285 -4.84104,4.148071 -5.07008,12.547059 -0.3208,16.8518741 2.23889,2.129463 5.33866,3.32314 8.42822,3.234063 z" />
      </g>
      <g
         id="g20858"
         transform="matrix(0.0940463,0,0,0.0940463,-1071.8268,-91.513443)"
         inkscape:label="confetti-4">
        <path
           id="path6087"
           style="fill:#00ff66;stroke-width:0.0627915;stroke-linecap:square;stroke-linejoin:round;paint-order:stroke markers fill"
           d="m -686.26625,117.28256 c -4.2375,0.2413 -7.7479,2.86711 -11.31836,4.87109 -6.71834,3.93684 -13.61084,7.60036 -20.06054,11.97656 -4.8323,4.32814 -4.7757,12.89179 0.1883,17.0976 4.1737,3.74112 10.9287,3.62162 15.31364,0.3067 8.02946,-4.71295 16.24916,-9.11689 24.04486,-14.2168 4.829,-4.1992 4.9642,-12.63673 0.1546,-16.9022 -2.2347,-2.06114 -5.2813,-3.21757 -8.3225,-3.13295 z" />
        <path
           id="path6089"
           style="fill:#ffffff;stroke-width:0.0627915;stroke-linecap:square;stroke-linejoin:round;paint-order:stroke markers fill"
           d="m -608.55335,71.186846 c -4.2311,0.22761 -7.7424,2.84119 -11.3047,4.84375 -6.7518,3.98489 -13.7227,7.62628 -20.1856,12.08008 -4.7475,4.34105 -4.6649,12.803214 0.2419,16.992594 4.0696,3.67934 10.6347,3.66332 15.0277,0.5621 8.0284,-4.83755 16.3736,-9.152624 24.17575,-14.359384 3.24699,-2.56923 4.4423,-7.13385 3.63582,-11.09551 -0.6113,-3.15419 -2.667,-5.96521 -5.49717,-7.49042 -1.8455,-1.0438 -3.9725,-1.58751 -6.0937,-1.53321 z" />
        <path
           id="path6091"
           style="fill:#00ccff;fill-opacity:1;stroke-width:0.0627915;stroke-linecap:square;stroke-linejoin:round;paint-order:stroke markers fill"
           d="m -611.41865,146.96615 c -4.2335,0.24244 -7.7435,2.85873 -11.3125,4.85937 -6.7445,3.99491 -13.7221,7.62055 -20.1757,12.0879 -4.7473,4.38552 -4.6159,12.90716 0.3723,17.05971 4.2073,3.70354 10.9544,3.52855 15.321,0.19224 7.9896,-4.66595 16.1395,-9.0708 23.9024,-14.11328 4.841,-4.14807 5.07004,-12.54706 0.3208,-16.85188 -2.2389,-2.12946 -5.3387,-3.32314 -8.4283,-3.23406 z" />
      </g>
    </g>
  </g>
</svg>
